<?xml version="1.0" encoding="UTF-8"?>
<svg width="170px" height="170px" viewBox="0 0 170 170" version="1.1" xmlns="http://www.w3.org/2000/svg" xmlns:xlink="http://www.w3.org/1999/xlink">
    <!-- Generator: Sketch 49.3 (51167) - http://www.bohemiancoding.com/sketch -->
    <title>privacy_icon</title>
    <desc>Created with Sketch.</desc>
    <defs></defs>
    <g id="privacy_icon" stroke="none" stroke-width="1" fill="none" fill-rule="evenodd">
        <g transform="translate(2.000000, 21.000000)">
            <g id="Vector" transform="translate(26.000000, 34.000000)" stroke="#0072FF" stroke-width="2">
                <path d="M0.200000763,55.6992 C0.200000763,24.9992 25.4,0.199200763 56.6,0.199200763 C87.8,0.199200763 113,24.9992 113,55.6992" id="Shape"></path>
            </g>
            <g id="Group_2" transform="translate(64.000000, 0.000000)">
                <g id="Vector_2" transform="translate(0.000000, 23.000000)">
                    <path d="M18.6,31.7008 C8.7,31.7008 0.699996948,23.7008 0.699996948,13.8008 L0.699996948,0.300799237 L36.5,0.300799237 L36.5,13.9008 C36.5,23.7008 28.5,31.7008 18.6,31.7008 Z" id="Shape" fill="#F4F9FF" fill-rule="nonzero"></path>
                    <path d="M18.6,31.7008 C8.7,31.7008 0.699996948,23.7008 0.699996948,13.8008 L0.699996948,0.300799237 L36.5,0.300799237 L36.5,13.9008 C36.5,23.7008 28.5,31.7008 18.6,31.7008 Z" id="Shape" stroke="#92A4BA" stroke-width="2"></path>
                </g>
                <g id="Vector_3" transform="translate(7.000000, 0.000000)" stroke="#92A4BA" stroke-width="2">
                    <path d="M0.400001526,22.3 L0.400001526,11.1 C0.400001526,5 5.4,0 11.6,0 C17.8,0 22.7,5 22.7,11.1 L22.7,23.2" id="Shape"></path>
                </g>
                <g id="Vector_4" transform="translate(15.000000, 29.000000)">
                    <path d="M4,7.8992 C5.98822,7.8992 7.6,6.28742 7.6,4.2992 C7.6,2.31097 5.98822,0.6992 4,0.6992 C2.01177,0.6992 0.4,2.31097 0.4,4.2992 C0.4,6.28742 2.01177,7.8992 4,7.8992 Z" id="Shape" fill="#F4F9FF" fill-rule="nonzero"></path>
                    <path d="M7.6,4.2992 C7.6,6.28742 5.98823,7.8992 4,7.8992 C2.01177,7.8992 0.400001526,6.28742 0.400001526,4.2992 C0.400001526,2.31097 2.01177,0.699200763 4,0.699200763 C5.98823,0.699200763 7.6,2.31097 7.6,4.2992 Z" id="Shape" stroke="#92A4BA" stroke-width="2" stroke-linecap="round"></path>
                </g>
                <g id="Vector_5" transform="translate(19.000000, 36.000000)" stroke="#92A4BA" stroke-linecap="round" stroke-width="2">
                    <path d="M0,0.800799237 L0,8.5008" id="Shape"></path>
                </g>
            </g>
            <g id="Group_3" transform="translate(0.000000, 77.000000)">
                <g id="Group_4">
                    <g id="Vector_6" transform="translate(0.000000, 45.000000)">
                        <path d="M58.6,6.09901 L2.5,6.09901 C1.1,6.09901 0,4.999 0,3.599 L0,3.199 C0,1.799 1.1,0.698996948 2.5,0.698996948 L58.6,0.698996948 C60,0.698996948 61.1,1.799 61.1,3.199 L61.1,3.599 C61.1,4.899 60,6.09901 58.6,6.09901 Z" id="Shape" fill="#F4F9FF" fill-rule="nonzero"></path>
                        <path d="M58.6,6.09901 L2.5,6.09901 C1.1,6.09901 0,4.999 0,3.599 L0,3.199 C0,1.799 1.1,0.698996948 2.5,0.698996948 L58.6,0.698996948 C60,0.698996948 61.1,1.799 61.1,3.199 L61.1,3.599 C61.1,4.899 60,6.09901 58.6,6.09901 Z" id="Shape" stroke="#92A4BA" stroke-width="2"></path>
                    </g>
                    <g id="Vector_7" transform="translate(3.000000, 0.000000)">
                        <path d="M49.09999,39.4 L6.09999,39.4 C3.19999,39.4 0.799990191,37 0.799990191,34.1 L0.799990191,5.3 C0.799990191,2.4 3.19999,0 6.09999,0 L49.09999,0 C51.99999,0 54.39999,2.4 54.39999,5.3 L54.39999,34.1 C54.39999,37 51.99999,39.4 49.09999,39.4 Z" id="Shape" fill="#F4F9FF" fill-rule="nonzero"></path>
                        <path d="M49.09999,39.4 L6.09999,39.4 C3.19999,39.4 0.799990191,37 0.799990191,34.1 L0.799990191,5.3 C0.799990191,2.4 3.19999,0 6.09999,0 L49.09999,0 C51.99999,0 54.39999,2.4 54.39999,5.3 L54.39999,34.1 C54.39999,37 51.99999,39.4 49.09999,39.4 Z" id="Shape" stroke="#92A4BA" stroke-width="2"></path>
                    </g>
                    <g id="Vector_8" transform="translate(11.000000, 10.000000)" stroke="#0072FF" stroke-linecap="round">
                        <path d="M0.699999809,0 L31.4,0" id="Shape"></path>
                    </g>
                    <g id="Vector_9" transform="translate(11.000000, 18.000000)" stroke="#0072FF" stroke-linecap="round">
                        <path d="M0.699999809,0 L19.4,0" id="Shape"></path>
                    </g>
                </g>
                <g id="Group_5" transform="translate(104.000000, 0.000000)">
                    <g id="Vector_10" transform="translate(0.000000, 45.000000)">
                        <path d="M58.6,6.09901 L2.5,6.09901 C1.1,6.09901 0,4.999 0,3.599 L0,3.199 C0,1.799 1.1,0.698996948 2.5,0.698996948 L58.6,0.698996948 C60,0.698996948 61.1,1.799 61.1,3.199 L61.1,3.599 C61.1,4.899 60,6.09901 58.6,6.09901 Z" id="Shape" fill="#F4F9FF" fill-rule="nonzero"></path>
                        <path d="M58.6,6.09901 L2.5,6.09901 C1.1,6.09901 0,4.999 0,3.599 L0,3.199 C0,1.799 1.1,0.698996948 2.5,0.698996948 L58.6,0.698996948 C60,0.698996948 61.1,1.799 61.1,3.199 L61.1,3.599 C61.1,4.899 60,6.09901 58.6,6.09901 Z" id="Shape" stroke="#92A4BA" stroke-width="2"></path>
                    </g>
                    <g id="Vector_11" transform="translate(3.000000, 0.000000)">
                        <path d="M49.1,39.4 L6.1,39.4 C3.2,39.4 0.800003052,37 0.800003052,34.1 L0.800003052,5.3 C0.800003052,2.4 3.2,0 6.1,0 L49.1,0 C52,0 54.4,2.4 54.4,5.3 L54.4,34.1 C54.4,37 52,39.4 49.1,39.4 Z" id="Shape" fill="#F4F9FF" fill-rule="nonzero"></path>
                        <path d="M49.1,39.4 L6.1,39.4 C3.2,39.4 0.800003052,37 0.800003052,34.1 L0.800003052,5.3 C0.800003052,2.4 3.2,0 6.1,0 L49.1,0 C52,0 54.4,2.4 54.4,5.3 L54.4,34.1 C54.4,37 52,39.4 49.1,39.4 Z" id="Shape" stroke="#92A4BA" stroke-width="2"></path>
                    </g>
                    <g id="Vector_12" transform="translate(11.000000, 10.000000)" stroke="#0072FF" stroke-linecap="round">
                        <path d="M0.699996948,0 L11.4,0" id="Shape"></path>
                    </g>
                    <g id="Vector_13" transform="translate(11.000000, 18.000000)" stroke="#0072FF" stroke-linecap="round">
                        <path d="M0.699996948,0 L29.4,0" id="Shape"></path>
                    </g>
                    <g id="Vector_14" transform="translate(11.000000, 26.000000)" stroke="#0072FF" stroke-linecap="round">
                        <path d="M0.699996948,0 L21.4,0" id="Shape"></path>
                    </g>
                </g>
            </g>
        </g>
    </g>
</svg>