<?xml version="1.0" encoding="UTF-8"?>
<svg width="170px" height="170px" viewBox="0 0 170 170" version="1.1" xmlns="http://www.w3.org/2000/svg" xmlns:xlink="http://www.w3.org/1999/xlink">
    <!-- Generator: Sketch 49.3 (51167) - http://www.bohemiancoding.com/sketch -->
    <title>security</title>
    <desc>Created with Sketch.</desc>
    <defs></defs>
    <g id="security" stroke="none" stroke-width="1" fill="none" fill-rule="evenodd">
        <g transform="translate(5.000000, 0.000000)">
            <g id="Vector" transform="translate(36.000000, 32.000000)" stroke="#0072FF" stroke-width="2">
                <path d="M88.3,44.6 C88.3,68.9558 68.5558,88.7 44.2,88.7 C19.8442,88.7 0.0999984741,68.9558 0.0999984741,44.6 C0.0999984741,20.2442 19.8442,0.5 44.2,0.5 C68.5558,0.5 88.3,20.2442 88.3,44.6 Z" id="Shape"></path>
            </g>
            <g id="Group_2" transform="translate(22.000000, 50.000000)">
                <g id="Vector_2" transform="translate(0.000000, 35.000000)">
                    <path d="M44,4.2012 L2.1,4.2012 C1,4.2012 0.100000381,3.3012 0.100000381,2.2012 C0.100000381,1.101197 1,0.201196948 2.1,0.201196948 L44,0.201196948 C45.1,0.201196948 46,1.101197 46,2.2012 C46,3.3012 45.1,4.2012 44,4.2012 Z" id="Shape" fill="#FFFFFF" fill-rule="nonzero"></path>
                    <path d="M44,4.2012 L2.1,4.2012 C1,4.2012 0.100000381,3.3012 0.100000381,2.2012 C0.100000381,1.101197 1,0.201196948 2.1,0.201196948 L44,0.201196948 C45.1,0.201196948 46,1.101197 46,2.2012 C46,3.3012 45.1,4.2012 44,4.2012 Z" id="Shape" stroke="#92A4BA" stroke-width="2"></path>
                </g>
                <g id="Vector_3" transform="translate(2.000000, 0.000000)">
                    <path d="M35.9,30.5004 L6.2,30.5004 C3.3,30.5004 0.899999619,28.1004 0.899999619,25.2004 L0.899999619,6.2004 C0.899999619,3.3004 3.3,0.900401526 6.2,0.900401526 L35.9,0.900401526 C38.8,0.900401526 41.2,3.3004 41.2,6.2004 L41.2,25.2004 C41.2,28.1004 38.8,30.5004 35.9,30.5004 Z" id="Shape" fill="#FFFFFF" fill-rule="nonzero"></path>
                    <path d="M35.9,30.5004 L6.2,30.5004 C3.3,30.5004 0.899999619,28.1004 0.899999619,25.2004 L0.899999619,6.2004 C0.899999619,3.3004 3.3,0.900401526 6.2,0.900401526 L35.9,0.900401526 C38.8,0.900401526 41.2,3.3004 41.2,6.2004 L41.2,25.2004 C41.2,28.1004 38.8,30.5004 35.9,30.5004 Z" id="Shape" stroke="#92A4BA" stroke-width="2"></path>
                </g>
            </g>
            <g id="Group_3" transform="translate(71.000000, 94.000000)">
                <g id="Vector_4" transform="translate(0.000000, 34.000000)">
                    <path d="M44.2,4.801 L2.2,4.801 C1.099997,4.801 0.199996948,3.901 0.199996948,2.801 C0.199996948,1.701003 1.099997,0.801003052 2.2,0.801003052 L44.1,0.801003052 C45.2,0.801003052 46.1,1.701003 46.1,2.801 C46.2,3.901 45.3,4.801 44.2,4.801 Z" id="Shape" fill="#FFFFFF" fill-rule="nonzero"></path>
                    <path d="M44.2,4.801 L2.2,4.801 C1.099997,4.801 0.199996948,3.901 0.199996948,2.801 C0.199996948,1.701003 1.099997,0.801003052 2.2,0.801003052 L44.1,0.801003052 C45.2,0.801003052 46.1,1.701003 46.1,2.801 C46.2,3.901 45.3,4.801 44.2,4.801 Z" id="Shape" stroke="#92A4BA" stroke-width="2"></path>
                </g>
                <g id="Vector_5" transform="translate(3.000000, 0.000000)">
                    <path d="M35,30.1 L5.4,30.1 C2.5,30.1 0.0999984741,27.7 0.0999984741,24.8 L0.0999984741,5.8 C0.0999984741,2.9 2.5,0.5 5.4,0.5 L35,0.5 C37.9,0.5 40.3,2.9 40.3,5.8 L40.3,24.8 C40.4,27.7 38,30.1 35,30.1 Z" id="Shape" fill="#FFFFFF" fill-rule="nonzero"></path>
                    <path d="M35,30.1 L5.4,30.1 C2.5,30.1 0.0999984741,27.7 0.0999984741,24.8 L0.0999984741,5.8 C0.0999984741,2.9 2.5,0.5 5.4,0.5 L35,0.5 C37.9,0.5 40.3,2.9 40.3,5.8 L40.3,24.8 C40.4,27.7 38,30.1 35,30.1 Z" id="Shape" stroke="#92A4BA" stroke-width="2"></path>
                </g>
            </g>
            <g id="Group_4" transform="translate(88.000000, 30.000000)">
                <g id="Vector_6" transform="translate(0.000000, 35.000000)">
                    <path d="M44.2,4.1992 L2.3,4.1992 C1.200003,4.1992 0.300003052,3.2992 0.300003052,2.1992 C0.300003052,1.099197 1.200003,0.199196948 2.3,0.199196948 L44.2,0.199196948 C45.3,0.199196948 46.2,1.099197 46.2,2.1992 C46.3,3.2992 45.3,4.1992 44.2,4.1992 Z" id="Shape" fill="#FFFFFF" fill-rule="nonzero"></path>
                    <path d="M44.2,4.1992 L2.3,4.1992 C1.200003,4.1992 0.300003052,3.2992 0.300003052,2.1992 C0.300003052,1.099197 1.200003,0.199196948 2.3,0.199196948 L44.2,0.199196948 C45.3,0.199196948 46.2,1.099197 46.2,2.1992 C46.3,3.2992 45.3,4.1992 44.2,4.1992 Z" id="Shape" stroke="#92A4BA" stroke-width="2"></path>
                </g>
                <g id="Vector_7" transform="translate(3.000000, 0.000000)">
                    <path d="M35.1,30.3992 L5.4,30.3992 C2.5,30.3992 0.0999984741,27.9992 0.0999984741,25.0992 L0.0999984741,5.9992 C0.0999984741,3.0992 2.5,0.699200763 5.4,0.699200763 L35.1,0.699200763 C38,0.699200763 40.4,3.0992 40.4,5.9992 L40.4,24.9992 C40.4,27.9992 38,30.3992 35.1,30.3992 Z" id="Shape" fill="#FFFFFF" fill-rule="nonzero"></path>
                    <path d="M35.1,30.3992 L5.4,30.3992 C2.5,30.3992 0.0999984741,27.9992 0.0999984741,25.0992 L0.0999984741,5.9992 C0.0999984741,3.0992 2.5,0.699200763 5.4,0.699200763 L35.1,0.699200763 C38,0.699200763 40.4,3.0992 40.4,5.9992 L40.4,24.9992 C40.4,27.9992 38,30.3992 35.1,30.3992 Z" id="Shape" stroke="#92A4BA" stroke-width="2"></path>
                </g>
            </g>
            <g id="Vector_8" stroke="#92A4BA" stroke-width="2">
                <path d="M80.7,0 L79.6,0 C54,17.6 30,24.1 0,24.1 C0,99.2 24.3,136.9 79.8,169.8 L80.6,169.8 C136.1,136.9 160.4,99.3 160.4,24.1 C130.3,24.1 106.3,17.6 80.7,0 Z" id="Shape"></path>
            </g>
        </g>
    </g>
</svg>